{"title":"Calvin Harris Ft. Florence Welch - Sweet Nothing [Music Video] 1","uid":8374563,"size":101963884,"categoryP":"video","categoryS":"music_videos","magnet":"?xt=urn:btih:fe433efcddac0c5e34ecbb0f8f7f96df91ff59d5&amp;dn=Calvin+Harris+Ft.+Florence+Welch+-+Sweet+Nothing+%5BMusic+Video%5D+1&amp;tr=udp%3A%2F%2Ftracker.openbittorrent.com%3A80&amp;tr=udp%3A%2F%2Fopen.demonii.com%3A1337&amp;tr=udp%3A%2F%2Ftracker.coppersurfer.tk%3A6969&amp;tr=udp%3A%2F%2Fexodus.desync.com%3A6969","seeders":2,"leechers":0,"uploader":"Sbyky","files":-1,"time":1366011829,"description":"[IMG]http://www.shotpix.com/images/91294611877552750130.jpeg[/IMG]\n\nGeneral\nComplete name                            : Calvin Harris Ft. Florence Welch - Sweet Nothing [Music Video] 1080p [Sbyky].mp4\nFormat                                   : MPEG-4\nFormat profile                           : Base Media / Version 2\nCodec ID                                 : mp42\nFile size                                : 97.2 MiB\nDuration                                 : 4mn 28s\nOverall bit rate mode                    : Variable\nOverall bit rate                         : 3 034 Kbps\nEncoded date                             : UTC 2013-04-08 02:56:10\nTagged date                              : UTC 2013-04-08 02:56:10\n\nVideo\nID                                       : 1\nFormat                                   : AVC\nFormat/Info                              : Advanced Video Codec\nFormat profile                           : &lt;a class=&quot;__cf_email__&quot; href=&quot;/cdn-cgi/l/email-protection&quot; data-cfemail=&quot;98d0f1fff0d8d4acb6a8&quot;&gt;[email&amp;#160;protected]&lt;/a&gt;&lt;script cf-hash='f9e31' type=&quot;text/javascript&quot;&gt;\n/* &lt;![CDATA[ */!function(){try{var t=&quot;currentScript&quot;in document?document.currentScript:function(){for(var t=document.getElementsByTagName(&quot;script&quot;),e=t.length;e--;)if(t[e].getAttribute(&quot;cf-hash&quot;))return t[e]}();if(t&amp;&amp;t.previousSibling){var e,r,n,i,c=t.previousSibling,a=c.getAttribute(&quot;data-cfemail&quot;);if(a){for(e=&quot;&quot;,r=parseInt(a.substr(0,2),16),n=2;a.length-n;n+=2)i=parseInt(a.substr(n,2),16)^r,e+=String.fromCharCode(i);e=document.createTextNode(e),c.parentNode.replaceChild(e,c)}}}catch(u){}}();/* ]]&gt; */&lt;/script&gt;\nFormat settings, CABAC                   : Yes\nFormat settings, ReFrames                : 1 frame\nCodec ID                                 : avc1\nCodec ID/Info                            : Advanced Video Coding\nDuration                                 : 4mn 28s\nBit rate                                 : 2 840 Kbps\nMaximum bit rate                         : 6 952 Kbps\nWidth                                    : 1 920 pixels\nHeight                                   : 1 080 pixels\nDisplay aspect ratio                     : 16:9\nFrame rate mode                          : Constant\nFrame rate                               : 25.000 fps\nColor space                              : YUV\nChroma subsampling                       : 4:2:0\nBit depth                                : 8 bits\nScan type                                : Progressive\nBits/(Pixel*Frame)                       : 0.055\nStream size                              : 91.0 MiB (94%)\nTagged date                              : UTC 2013-04-08 02:56:17\n\nAudio\nID                                       : 2\nFormat                                   : AAC\nFormat/Info                              : Advanced Audio Codec\nFormat profile                           : LC\nCodec ID                                 : 40\nDuration                                 : 4mn 28s\nBit rate mode                            : Variable\nBit rate                                 : 192 Kbps\nMaximum bit rate                         : 201 Kbps\nChannel(s)                               : 2 channels\nChannel positions                        : Front: L R\nSampling rate                            : 44.1 KHz\nCompression mode                         : Lossy\nStream size                              : 6.15 MiB (6%)\nTitle                                    : IsoMedia File Produced by Google, 5-11-2011\nEncoded date                             : UTC 2013-04-08 02:56:15\nTagged date                              : UTC 2013-04-08 02:56:17\n\nShared By Sbyky\n[IMG]http://www.shotpix.com/images/76014917432015785852.gif[/IMG]\n[IMG]http://www.shotpix.com/images/54100788659511547411.gif[/IMG]","torrent":{"xt":"urn:btih:fe433efcddac0c5e34ecbb0f8f7f96df91ff59d5","amp;dn":"Calvin+Harris+Ft.+Florence+Welch+-+Sweet+Nothing+%5BMusic+Video%5D+1","amp;tr":["udp%3A%2F%2Ftracker.openbittorrent.com%3A80","udp%3A%2F%2Fopen.demonii.com%3A1337","udp%3A%2F%2Ftracker.coppersurfer.tk%3A6969","udp%3A%2F%2Fexodus.desync.com%3A6969"],"infoHash":"fe433efcddac0c5e34ecbb0f8f7f96df91ff59d5","infoHashBuffer":{"type":"Buffer","data":[254,67,62,252,221,172,12,94,52,236,187,15,143,127,150,223,145,255,89,213]},"announce":[],"urlList":[]}}